<mxfile host="app.diagrams.net" modified="2021-12-07T11:31:28.927Z" agent="5.0 (Windows NT 10.0; Win64; x64) AppleWebKit/537.36 (KHTML, like Gecko) Chrome/96.0.4664.55 Safari/537.36 Edg/96.0.1054.43" etag="NcUjxI0SbIsRNZGhL031" version="15.9.1" type="github">
  <diagram id="UGROHlOMYt05LJWbswA8" name="Page-1">
    <mxGraphModel dx="1320" dy="482" grid="1" gridSize="10" guides="1" tooltips="1" connect="1" arrows="1" fold="1" page="1" pageScale="1" pageWidth="1169" pageHeight="1654" math="0" shadow="0">
      <root>
        <mxCell id="0" />
        <mxCell id="1" parent="0" />
        <mxCell id="V7oSJsPAiHyumdqO1vG8-1" value="" style="shape=table;startSize=0;container=1;collapsible=0;childLayout=tableLayout;strokeWidth=2;fontFamily=Comic Sans MS;fontSize=25;fontStyle=0" vertex="1" parent="1">
          <mxGeometry x="190" y="40" width="270" height="30" as="geometry" />
        </mxCell>
        <mxCell id="V7oSJsPAiHyumdqO1vG8-2" value="" style="shape=partialRectangle;collapsible=0;dropTarget=0;pointerEvents=0;fillColor=none;top=0;left=0;bottom=0;right=0;points=[[0,0.5],[1,0.5]];portConstraint=eastwest;fontSize=24;fontFamily=Comic Sans MS;fontStyle=1" vertex="1" parent="V7oSJsPAiHyumdqO1vG8-1">
          <mxGeometry width="270" height="30" as="geometry" />
        </mxCell>
        <mxCell id="V7oSJsPAiHyumdqO1vG8-3" value="&lt;font style=&quot;font-size: 22px;&quot;&gt;8&lt;/font&gt;" style="shape=partialRectangle;html=1;whiteSpace=wrap;connectable=0;overflow=hidden;fillColor=none;top=0;left=0;bottom=0;right=0;pointerEvents=1;fontSize=22;fontFamily=Comic Sans MS;" vertex="1" parent="V7oSJsPAiHyumdqO1vG8-2">
          <mxGeometry width="45" height="30" as="geometry">
            <mxRectangle width="45" height="30" as="alternateBounds" />
          </mxGeometry>
        </mxCell>
        <mxCell id="V7oSJsPAiHyumdqO1vG8-4" value="&lt;font style=&quot;font-size: 22px;&quot;&gt;4&lt;/font&gt;" style="shape=partialRectangle;html=1;whiteSpace=wrap;connectable=0;overflow=hidden;fillColor=none;top=0;left=0;bottom=0;right=0;pointerEvents=1;fontFamily=Comic Sans MS;fontSize=22;" vertex="1" parent="V7oSJsPAiHyumdqO1vG8-2">
          <mxGeometry x="45" width="45" height="30" as="geometry">
            <mxRectangle width="45" height="30" as="alternateBounds" />
          </mxGeometry>
        </mxCell>
        <mxCell id="V7oSJsPAiHyumdqO1vG8-5" value="&lt;font style=&quot;font-size: 22px;&quot;&gt;23&lt;/font&gt;" style="shape=partialRectangle;html=1;whiteSpace=wrap;connectable=0;overflow=hidden;fillColor=none;top=0;left=0;bottom=0;right=0;pointerEvents=1;fontFamily=Comic Sans MS;fontSize=22;" vertex="1" parent="V7oSJsPAiHyumdqO1vG8-2">
          <mxGeometry x="90" width="45" height="30" as="geometry">
            <mxRectangle width="45" height="30" as="alternateBounds" />
          </mxGeometry>
        </mxCell>
        <mxCell id="V7oSJsPAiHyumdqO1vG8-6" value="&lt;font style=&quot;font-size: 23px;&quot;&gt;42&lt;/font&gt;" style="shape=partialRectangle;html=1;whiteSpace=wrap;connectable=0;overflow=hidden;fillColor=none;top=0;left=0;bottom=0;right=0;pointerEvents=1;fontFamily=Comic Sans MS;fontSize=23;" vertex="1" parent="V7oSJsPAiHyumdqO1vG8-2">
          <mxGeometry x="135" width="45" height="30" as="geometry">
            <mxRectangle width="45" height="30" as="alternateBounds" />
          </mxGeometry>
        </mxCell>
        <mxCell id="V7oSJsPAiHyumdqO1vG8-7" value="&lt;font style=&quot;font-size: 23px&quot; face=&quot;Comic Sans MS&quot;&gt;16&lt;/font&gt;" style="shape=partialRectangle;html=1;whiteSpace=wrap;connectable=0;overflow=hidden;fillColor=none;top=0;left=0;bottom=0;right=0;pointerEvents=1;" vertex="1" parent="V7oSJsPAiHyumdqO1vG8-2">
          <mxGeometry x="180" width="45" height="30" as="geometry">
            <mxRectangle width="45" height="30" as="alternateBounds" />
          </mxGeometry>
        </mxCell>
        <mxCell id="V7oSJsPAiHyumdqO1vG8-8" value="&lt;font style=&quot;font-size: 23px&quot; face=&quot;Comic Sans MS&quot;&gt;15&lt;/font&gt;" style="shape=partialRectangle;html=1;whiteSpace=wrap;connectable=0;overflow=hidden;fillColor=none;top=0;left=0;bottom=0;right=0;pointerEvents=1;" vertex="1" parent="V7oSJsPAiHyumdqO1vG8-2">
          <mxGeometry x="225" width="45" height="30" as="geometry">
            <mxRectangle width="45" height="30" as="alternateBounds" />
          </mxGeometry>
        </mxCell>
        <mxCell id="V7oSJsPAiHyumdqO1vG8-12" value="" style="shape=table;startSize=0;container=1;collapsible=0;childLayout=tableLayout;fontFamily=Comic Sans MS;fontSize=22;strokeWidth=2;" vertex="1" parent="1">
          <mxGeometry x="350" y="120" width="110" height="30" as="geometry" />
        </mxCell>
        <mxCell id="V7oSJsPAiHyumdqO1vG8-13" value="" style="shape=partialRectangle;collapsible=0;dropTarget=0;pointerEvents=0;fillColor=none;top=0;left=0;bottom=0;right=0;points=[[0,0.5],[1,0.5]];portConstraint=eastwest;fontFamily=Comic Sans MS;fontSize=22;strokeWidth=2;" vertex="1" parent="V7oSJsPAiHyumdqO1vG8-12">
          <mxGeometry width="110" height="30" as="geometry" />
        </mxCell>
        <mxCell id="V7oSJsPAiHyumdqO1vG8-14" value="42" style="shape=partialRectangle;html=1;whiteSpace=wrap;connectable=0;overflow=hidden;fillColor=none;top=0;left=0;bottom=0;right=0;pointerEvents=1;fontFamily=Comic Sans MS;fontSize=22;strokeWidth=2;" vertex="1" parent="V7oSJsPAiHyumdqO1vG8-13">
          <mxGeometry width="40" height="30" as="geometry">
            <mxRectangle width="40" height="30" as="alternateBounds" />
          </mxGeometry>
        </mxCell>
        <mxCell id="V7oSJsPAiHyumdqO1vG8-15" value="16" style="shape=partialRectangle;html=1;whiteSpace=wrap;connectable=0;overflow=hidden;fillColor=none;top=0;left=0;bottom=0;right=0;pointerEvents=1;fontFamily=Comic Sans MS;fontSize=22;strokeWidth=2;" vertex="1" parent="V7oSJsPAiHyumdqO1vG8-13">
          <mxGeometry x="40" width="30" height="30" as="geometry">
            <mxRectangle width="30" height="30" as="alternateBounds" />
          </mxGeometry>
        </mxCell>
        <mxCell id="V7oSJsPAiHyumdqO1vG8-16" value="15" style="shape=partialRectangle;html=1;whiteSpace=wrap;connectable=0;overflow=hidden;fillColor=none;top=0;left=0;bottom=0;right=0;pointerEvents=1;fontFamily=Comic Sans MS;fontSize=22;strokeWidth=2;" vertex="1" parent="V7oSJsPAiHyumdqO1vG8-13">
          <mxGeometry x="70" width="40" height="30" as="geometry">
            <mxRectangle width="40" height="30" as="alternateBounds" />
          </mxGeometry>
        </mxCell>
        <mxCell id="V7oSJsPAiHyumdqO1vG8-17" value="" style="shape=table;startSize=0;container=1;collapsible=0;childLayout=tableLayout;fontFamily=Comic Sans MS;fontSize=22;strokeWidth=2;" vertex="1" parent="1">
          <mxGeometry x="190" y="120" width="110" height="30" as="geometry" />
        </mxCell>
        <mxCell id="V7oSJsPAiHyumdqO1vG8-18" value="" style="shape=partialRectangle;collapsible=0;dropTarget=0;pointerEvents=0;fillColor=none;top=0;left=0;bottom=0;right=0;points=[[0,0.5],[1,0.5]];portConstraint=eastwest;fontFamily=Comic Sans MS;fontSize=22;strokeWidth=2;" vertex="1" parent="V7oSJsPAiHyumdqO1vG8-17">
          <mxGeometry width="110" height="30" as="geometry" />
        </mxCell>
        <mxCell id="V7oSJsPAiHyumdqO1vG8-19" value="8" style="shape=partialRectangle;html=1;whiteSpace=wrap;connectable=0;overflow=hidden;fillColor=none;top=0;left=0;bottom=0;right=0;pointerEvents=1;fontFamily=Comic Sans MS;fontSize=22;strokeWidth=2;" vertex="1" parent="V7oSJsPAiHyumdqO1vG8-18">
          <mxGeometry width="40" height="30" as="geometry">
            <mxRectangle width="40" height="30" as="alternateBounds" />
          </mxGeometry>
        </mxCell>
        <mxCell id="V7oSJsPAiHyumdqO1vG8-20" value="4" style="shape=partialRectangle;html=1;whiteSpace=wrap;connectable=0;overflow=hidden;fillColor=none;top=0;left=0;bottom=0;right=0;pointerEvents=1;fontFamily=Comic Sans MS;fontSize=22;strokeWidth=2;" vertex="1" parent="V7oSJsPAiHyumdqO1vG8-18">
          <mxGeometry x="40" width="30" height="30" as="geometry">
            <mxRectangle width="30" height="30" as="alternateBounds" />
          </mxGeometry>
        </mxCell>
        <mxCell id="V7oSJsPAiHyumdqO1vG8-21" value="23" style="shape=partialRectangle;html=1;whiteSpace=wrap;connectable=0;overflow=hidden;fillColor=none;top=0;left=0;bottom=0;right=0;pointerEvents=1;fontFamily=Comic Sans MS;fontSize=22;strokeWidth=2;" vertex="1" parent="V7oSJsPAiHyumdqO1vG8-18">
          <mxGeometry x="70" width="40" height="30" as="geometry">
            <mxRectangle width="40" height="30" as="alternateBounds" />
          </mxGeometry>
        </mxCell>
        <mxCell id="V7oSJsPAiHyumdqO1vG8-23" value="" style="endArrow=classic;html=1;rounded=0;fontFamily=Comic Sans MS;fontSize=22;entryX=0.427;entryY=-0.1;entryDx=0;entryDy=0;entryPerimeter=0;" edge="1" parent="1" target="V7oSJsPAiHyumdqO1vG8-13">
          <mxGeometry width="50" height="50" relative="1" as="geometry">
            <mxPoint x="330" y="70" as="sourcePoint" />
            <mxPoint x="440" y="190" as="targetPoint" />
            <Array as="points">
              <mxPoint x="330" y="70" />
            </Array>
          </mxGeometry>
        </mxCell>
        <mxCell id="V7oSJsPAiHyumdqO1vG8-24" value="" style="endArrow=classic;html=1;rounded=0;fontFamily=Comic Sans MS;fontSize=22;entryX=0.455;entryY=-0.033;entryDx=0;entryDy=0;entryPerimeter=0;" edge="1" parent="1" target="V7oSJsPAiHyumdqO1vG8-18">
          <mxGeometry width="50" height="50" relative="1" as="geometry">
            <mxPoint x="310" y="73" as="sourcePoint" />
            <mxPoint x="376.97" y="120" as="targetPoint" />
            <Array as="points">
              <mxPoint x="320" y="73" />
              <mxPoint x="330" y="70" />
              <mxPoint x="310" y="73" />
            </Array>
          </mxGeometry>
        </mxCell>
        <mxCell id="V7oSJsPAiHyumdqO1vG8-25" value="" style="shape=table;startSize=0;container=1;collapsible=0;childLayout=tableLayout;fontFamily=Comic Sans MS;fontSize=22;strokeWidth=2;" vertex="1" parent="1">
          <mxGeometry x="190" y="190" width="80" height="30" as="geometry" />
        </mxCell>
        <mxCell id="V7oSJsPAiHyumdqO1vG8-26" value="" style="shape=partialRectangle;collapsible=0;dropTarget=0;pointerEvents=0;fillColor=none;top=0;left=0;bottom=0;right=0;points=[[0,0.5],[1,0.5]];portConstraint=eastwest;fontFamily=Comic Sans MS;fontSize=22;strokeWidth=2;" vertex="1" parent="V7oSJsPAiHyumdqO1vG8-25">
          <mxGeometry width="80" height="30" as="geometry" />
        </mxCell>
        <mxCell id="V7oSJsPAiHyumdqO1vG8-27" value="8" style="shape=partialRectangle;html=1;whiteSpace=wrap;connectable=0;overflow=hidden;fillColor=none;top=0;left=0;bottom=0;right=0;pointerEvents=1;fontFamily=Comic Sans MS;fontSize=22;strokeWidth=2;" vertex="1" parent="V7oSJsPAiHyumdqO1vG8-26">
          <mxGeometry width="40" height="30" as="geometry">
            <mxRectangle width="40" height="30" as="alternateBounds" />
          </mxGeometry>
        </mxCell>
        <mxCell id="V7oSJsPAiHyumdqO1vG8-28" value="4" style="shape=partialRectangle;html=1;whiteSpace=wrap;connectable=0;overflow=hidden;fillColor=none;top=0;left=0;bottom=0;right=0;pointerEvents=1;fontFamily=Comic Sans MS;fontSize=22;strokeWidth=2;" vertex="1" parent="V7oSJsPAiHyumdqO1vG8-26">
          <mxGeometry x="40" width="40" height="30" as="geometry">
            <mxRectangle width="40" height="30" as="alternateBounds" />
          </mxGeometry>
        </mxCell>
        <mxCell id="V7oSJsPAiHyumdqO1vG8-29" value="" style="shape=table;startSize=0;container=1;collapsible=0;childLayout=tableLayout;fontFamily=Comic Sans MS;fontSize=22;strokeWidth=2;" vertex="1" parent="1">
          <mxGeometry x="290" y="190" width="30" height="30" as="geometry" />
        </mxCell>
        <mxCell id="V7oSJsPAiHyumdqO1vG8-30" value="" style="shape=partialRectangle;collapsible=0;dropTarget=0;pointerEvents=0;fillColor=none;top=0;left=0;bottom=0;right=0;points=[[0,0.5],[1,0.5]];portConstraint=eastwest;fontFamily=Comic Sans MS;fontSize=22;strokeWidth=2;" vertex="1" parent="V7oSJsPAiHyumdqO1vG8-29">
          <mxGeometry width="30" height="30" as="geometry" />
        </mxCell>
        <mxCell id="V7oSJsPAiHyumdqO1vG8-31" value="23" style="shape=partialRectangle;html=1;whiteSpace=wrap;connectable=0;overflow=hidden;fillColor=none;top=0;left=0;bottom=0;right=0;pointerEvents=1;fontFamily=Comic Sans MS;fontSize=22;strokeWidth=2;" vertex="1" parent="V7oSJsPAiHyumdqO1vG8-30">
          <mxGeometry width="30" height="30" as="geometry">
            <mxRectangle width="30" height="30" as="alternateBounds" />
          </mxGeometry>
        </mxCell>
        <mxCell id="V7oSJsPAiHyumdqO1vG8-32" value="" style="shape=table;startSize=0;container=1;collapsible=0;childLayout=tableLayout;fontFamily=Comic Sans MS;fontSize=22;strokeWidth=2;" vertex="1" parent="1">
          <mxGeometry x="340" y="190" width="80" height="30" as="geometry" />
        </mxCell>
        <mxCell id="V7oSJsPAiHyumdqO1vG8-33" value="" style="shape=partialRectangle;collapsible=0;dropTarget=0;pointerEvents=0;fillColor=none;top=0;left=0;bottom=0;right=0;points=[[0,0.5],[1,0.5]];portConstraint=eastwest;fontFamily=Comic Sans MS;fontSize=22;strokeWidth=2;" vertex="1" parent="V7oSJsPAiHyumdqO1vG8-32">
          <mxGeometry width="80" height="30" as="geometry" />
        </mxCell>
        <mxCell id="V7oSJsPAiHyumdqO1vG8-34" value="42" style="shape=partialRectangle;html=1;whiteSpace=wrap;connectable=0;overflow=hidden;fillColor=none;top=0;left=0;bottom=0;right=0;pointerEvents=1;fontFamily=Comic Sans MS;fontSize=22;strokeWidth=2;" vertex="1" parent="V7oSJsPAiHyumdqO1vG8-33">
          <mxGeometry width="40" height="30" as="geometry">
            <mxRectangle width="40" height="30" as="alternateBounds" />
          </mxGeometry>
        </mxCell>
        <mxCell id="V7oSJsPAiHyumdqO1vG8-35" value="16" style="shape=partialRectangle;html=1;whiteSpace=wrap;connectable=0;overflow=hidden;fillColor=none;top=0;left=0;bottom=0;right=0;pointerEvents=1;fontFamily=Comic Sans MS;fontSize=22;strokeWidth=2;" vertex="1" parent="V7oSJsPAiHyumdqO1vG8-33">
          <mxGeometry x="40" width="40" height="30" as="geometry">
            <mxRectangle width="40" height="30" as="alternateBounds" />
          </mxGeometry>
        </mxCell>
        <mxCell id="V7oSJsPAiHyumdqO1vG8-36" value="" style="shape=table;startSize=0;container=1;collapsible=0;childLayout=tableLayout;fontFamily=Comic Sans MS;fontSize=22;strokeWidth=2;" vertex="1" parent="1">
          <mxGeometry x="440" y="190" width="30" height="30" as="geometry" />
        </mxCell>
        <mxCell id="V7oSJsPAiHyumdqO1vG8-37" value="" style="shape=partialRectangle;collapsible=0;dropTarget=0;pointerEvents=0;fillColor=none;top=0;left=0;bottom=0;right=0;points=[[0,0.5],[1,0.5]];portConstraint=eastwest;fontFamily=Comic Sans MS;fontSize=22;strokeWidth=2;" vertex="1" parent="V7oSJsPAiHyumdqO1vG8-36">
          <mxGeometry width="30" height="30" as="geometry" />
        </mxCell>
        <mxCell id="V7oSJsPAiHyumdqO1vG8-38" value="15" style="shape=partialRectangle;html=1;whiteSpace=wrap;connectable=0;overflow=hidden;fillColor=none;top=0;left=0;bottom=0;right=0;pointerEvents=1;fontFamily=Comic Sans MS;fontSize=22;strokeWidth=2;" vertex="1" parent="V7oSJsPAiHyumdqO1vG8-37">
          <mxGeometry width="30" height="30" as="geometry">
            <mxRectangle width="30" height="30" as="alternateBounds" />
          </mxGeometry>
        </mxCell>
        <mxCell id="V7oSJsPAiHyumdqO1vG8-39" value="" style="endArrow=classic;html=1;rounded=0;fontFamily=Comic Sans MS;fontSize=22;entryX=0.325;entryY=-0.133;entryDx=0;entryDy=0;entryPerimeter=0;" edge="1" parent="1" target="V7oSJsPAiHyumdqO1vG8-26">
          <mxGeometry width="50" height="50" relative="1" as="geometry">
            <mxPoint x="239.95" y="150" as="sourcePoint" />
            <mxPoint x="169.99999999999994" y="196.01" as="targetPoint" />
            <Array as="points">
              <mxPoint x="249.95" y="150" />
            </Array>
          </mxGeometry>
        </mxCell>
        <mxCell id="V7oSJsPAiHyumdqO1vG8-40" value="" style="endArrow=classic;html=1;rounded=0;fontFamily=Comic Sans MS;fontSize=22;entryX=0.467;entryY=-0.167;entryDx=0;entryDy=0;entryPerimeter=0;" edge="1" parent="1" target="V7oSJsPAiHyumdqO1vG8-30">
          <mxGeometry width="50" height="50" relative="1" as="geometry">
            <mxPoint x="253.03" y="150" as="sourcePoint" />
            <mxPoint x="310" y="190" as="targetPoint" />
            <Array as="points">
              <mxPoint x="253.03" y="150" />
            </Array>
          </mxGeometry>
        </mxCell>
        <mxCell id="V7oSJsPAiHyumdqO1vG8-41" value="" style="endArrow=classic;html=1;rounded=0;fontFamily=Comic Sans MS;fontSize=22;entryX=0.467;entryY=-0.167;entryDx=0;entryDy=0;entryPerimeter=0;" edge="1" parent="1">
          <mxGeometry width="50" height="50" relative="1" as="geometry">
            <mxPoint x="409.02" y="150" as="sourcePoint" />
            <mxPoint x="460" y="184.99" as="targetPoint" />
            <Array as="points">
              <mxPoint x="409.02" y="150" />
            </Array>
          </mxGeometry>
        </mxCell>
        <mxCell id="V7oSJsPAiHyumdqO1vG8-42" value="" style="endArrow=classic;html=1;rounded=0;fontFamily=Comic Sans MS;fontSize=22;entryX=0.325;entryY=-0.133;entryDx=0;entryDy=0;entryPerimeter=0;" edge="1" parent="1">
          <mxGeometry width="50" height="50" relative="1" as="geometry">
            <mxPoint x="393.95000000000005" y="150" as="sourcePoint" />
            <mxPoint x="370" y="186.01" as="targetPoint" />
            <Array as="points">
              <mxPoint x="403.95" y="150" />
            </Array>
          </mxGeometry>
        </mxCell>
        <mxCell id="V7oSJsPAiHyumdqO1vG8-47" value="" style="shape=table;startSize=0;container=1;collapsible=0;childLayout=tableLayout;fontFamily=Comic Sans MS;fontSize=22;strokeWidth=2;" vertex="1" parent="1">
          <mxGeometry x="450" y="250" width="30" height="30" as="geometry" />
        </mxCell>
        <mxCell id="V7oSJsPAiHyumdqO1vG8-48" value="" style="shape=partialRectangle;collapsible=0;dropTarget=0;pointerEvents=0;fillColor=none;top=0;left=0;bottom=0;right=0;points=[[0,0.5],[1,0.5]];portConstraint=eastwest;fontFamily=Comic Sans MS;fontSize=22;strokeWidth=2;" vertex="1" parent="V7oSJsPAiHyumdqO1vG8-47">
          <mxGeometry width="30" height="30" as="geometry" />
        </mxCell>
        <mxCell id="V7oSJsPAiHyumdqO1vG8-49" value="" style="shape=partialRectangle;html=1;whiteSpace=wrap;connectable=0;overflow=hidden;fillColor=none;top=0;left=0;bottom=0;right=0;pointerEvents=1;fontFamily=Comic Sans MS;fontSize=22;strokeWidth=2;" vertex="1" parent="V7oSJsPAiHyumdqO1vG8-48">
          <mxGeometry width="30" height="30" as="geometry">
            <mxRectangle width="30" height="30" as="alternateBounds" />
          </mxGeometry>
        </mxCell>
        <mxCell id="V7oSJsPAiHyumdqO1vG8-50" value="" style="shape=partialRectangle;collapsible=0;dropTarget=0;pointerEvents=0;fillColor=none;top=0;left=0;bottom=0;right=0;points=[[0,0.5],[1,0.5]];portConstraint=eastwest;fontFamily=Comic Sans MS;fontSize=22;strokeWidth=2;" vertex="1" parent="1">
          <mxGeometry x="460" y="260" width="30" height="30" as="geometry" />
        </mxCell>
        <mxCell id="V7oSJsPAiHyumdqO1vG8-51" value="" style="shape=partialRectangle;html=1;whiteSpace=wrap;connectable=0;overflow=hidden;fillColor=none;top=0;left=0;bottom=0;right=0;pointerEvents=1;fontFamily=Comic Sans MS;fontSize=22;strokeWidth=2;" vertex="1" parent="V7oSJsPAiHyumdqO1vG8-50">
          <mxGeometry width="30" height="30" as="geometry">
            <mxRectangle width="30" height="30" as="alternateBounds" />
          </mxGeometry>
        </mxCell>
        <mxCell id="V7oSJsPAiHyumdqO1vG8-52" value="" style="shape=partialRectangle;collapsible=0;dropTarget=0;pointerEvents=0;fillColor=none;top=0;left=0;bottom=0;right=0;points=[[0,0.5],[1,0.5]];portConstraint=eastwest;fontFamily=Comic Sans MS;fontSize=22;strokeWidth=2;" vertex="1" parent="1">
          <mxGeometry x="470" y="270" width="30" height="30" as="geometry" />
        </mxCell>
        <mxCell id="V7oSJsPAiHyumdqO1vG8-53" value="" style="shape=partialRectangle;html=1;whiteSpace=wrap;connectable=0;overflow=hidden;fillColor=none;top=0;left=0;bottom=0;right=0;pointerEvents=1;fontFamily=Comic Sans MS;fontSize=22;strokeWidth=2;" vertex="1" parent="V7oSJsPAiHyumdqO1vG8-52">
          <mxGeometry width="30" height="30" as="geometry">
            <mxRectangle width="30" height="30" as="alternateBounds" />
          </mxGeometry>
        </mxCell>
        <mxCell id="V7oSJsPAiHyumdqO1vG8-56" value="" style="shape=partialRectangle;collapsible=0;dropTarget=0;pointerEvents=0;fillColor=none;top=0;left=0;bottom=0;right=0;points=[[0,0.5],[1,0.5]];portConstraint=eastwest;fontFamily=Comic Sans MS;fontSize=22;strokeWidth=2;" vertex="1" parent="1">
          <mxGeometry x="490" y="290" width="30" height="30" as="geometry" />
        </mxCell>
        <mxCell id="V7oSJsPAiHyumdqO1vG8-57" value="" style="shape=partialRectangle;html=1;whiteSpace=wrap;connectable=0;overflow=hidden;fillColor=none;top=0;left=0;bottom=0;right=0;pointerEvents=1;fontFamily=Comic Sans MS;fontSize=22;strokeWidth=2;" vertex="1" parent="V7oSJsPAiHyumdqO1vG8-56">
          <mxGeometry width="30" height="30" as="geometry">
            <mxRectangle width="30" height="30" as="alternateBounds" />
          </mxGeometry>
        </mxCell>
        <mxCell id="V7oSJsPAiHyumdqO1vG8-58" value="15" style="shape=partialRectangle;collapsible=0;dropTarget=0;pointerEvents=0;fillColor=none;top=0;left=0;bottom=0;right=0;points=[[0,0.5],[1,0.5]];portConstraint=eastwest;fontFamily=Comic Sans MS;fontSize=22;strokeWidth=2;" vertex="1" parent="1">
          <mxGeometry x="450" y="250" width="30" height="30" as="geometry" />
        </mxCell>
        <mxCell id="V7oSJsPAiHyumdqO1vG8-59" value="" style="shape=partialRectangle;html=1;whiteSpace=wrap;connectable=0;overflow=hidden;fillColor=none;top=0;left=0;bottom=0;right=0;pointerEvents=1;fontFamily=Comic Sans MS;fontSize=22;strokeWidth=2;" vertex="1" parent="V7oSJsPAiHyumdqO1vG8-58">
          <mxGeometry width="30" height="30" as="geometry">
            <mxRectangle width="30" height="30" as="alternateBounds" />
          </mxGeometry>
        </mxCell>
        <mxCell id="V7oSJsPAiHyumdqO1vG8-66" value="" style="shape=table;startSize=0;container=1;collapsible=0;childLayout=tableLayout;fontFamily=Comic Sans MS;fontSize=22;strokeWidth=2;" vertex="1" parent="1">
          <mxGeometry x="390" y="250" width="35" height="30" as="geometry" />
        </mxCell>
        <mxCell id="V7oSJsPAiHyumdqO1vG8-67" value="" style="shape=partialRectangle;collapsible=0;dropTarget=0;pointerEvents=0;fillColor=none;top=0;left=0;bottom=0;right=0;points=[[0,0.5],[1,0.5]];portConstraint=eastwest;fontFamily=Comic Sans MS;fontSize=22;strokeWidth=2;" vertex="1" parent="V7oSJsPAiHyumdqO1vG8-66">
          <mxGeometry width="35" height="30" as="geometry" />
        </mxCell>
        <mxCell id="V7oSJsPAiHyumdqO1vG8-68" value="16" style="shape=partialRectangle;html=1;whiteSpace=wrap;connectable=0;overflow=hidden;fillColor=none;top=0;left=0;bottom=0;right=0;pointerEvents=1;fontFamily=Comic Sans MS;fontSize=22;strokeWidth=2;" vertex="1" parent="V7oSJsPAiHyumdqO1vG8-67">
          <mxGeometry width="35" height="30" as="geometry">
            <mxRectangle width="35" height="30" as="alternateBounds" />
          </mxGeometry>
        </mxCell>
        <mxCell id="V7oSJsPAiHyumdqO1vG8-69" value="" style="shape=partialRectangle;html=1;whiteSpace=wrap;connectable=0;overflow=hidden;fillColor=none;top=0;left=0;bottom=0;right=0;pointerEvents=1;fontFamily=Comic Sans MS;fontSize=22;strokeWidth=2;" vertex="1" parent="1">
          <mxGeometry x="340" y="250" width="35" height="30" as="geometry">
            <mxRectangle width="35" height="30" as="alternateBounds" />
          </mxGeometry>
        </mxCell>
        <mxCell id="V7oSJsPAiHyumdqO1vG8-73" value="" style="shape=table;startSize=0;container=1;collapsible=0;childLayout=tableLayout;fontFamily=Comic Sans MS;fontSize=22;strokeWidth=2;" vertex="1" parent="1">
          <mxGeometry x="340" y="250" width="35" height="30" as="geometry" />
        </mxCell>
        <mxCell id="V7oSJsPAiHyumdqO1vG8-74" value="" style="shape=partialRectangle;collapsible=0;dropTarget=0;pointerEvents=0;fillColor=none;top=0;left=0;bottom=0;right=0;points=[[0,0.5],[1,0.5]];portConstraint=eastwest;fontFamily=Comic Sans MS;fontSize=22;strokeWidth=2;" vertex="1" parent="V7oSJsPAiHyumdqO1vG8-73">
          <mxGeometry width="35" height="30" as="geometry" />
        </mxCell>
        <mxCell id="V7oSJsPAiHyumdqO1vG8-75" value="42" style="shape=partialRectangle;html=1;whiteSpace=wrap;connectable=0;overflow=hidden;fillColor=none;top=0;left=0;bottom=0;right=0;pointerEvents=1;fontFamily=Comic Sans MS;fontSize=22;strokeWidth=2;" vertex="1" parent="V7oSJsPAiHyumdqO1vG8-74">
          <mxGeometry width="35" height="30" as="geometry">
            <mxRectangle width="35" height="30" as="alternateBounds" />
          </mxGeometry>
        </mxCell>
        <mxCell id="V7oSJsPAiHyumdqO1vG8-76" value="" style="shape=table;startSize=0;container=1;collapsible=0;childLayout=tableLayout;fontFamily=Comic Sans MS;fontSize=22;strokeWidth=2;" vertex="1" parent="1">
          <mxGeometry x="285" y="250" width="35" height="30" as="geometry" />
        </mxCell>
        <mxCell id="V7oSJsPAiHyumdqO1vG8-77" value="" style="shape=partialRectangle;collapsible=0;dropTarget=0;pointerEvents=0;fillColor=none;top=0;left=0;bottom=0;right=0;points=[[0,0.5],[1,0.5]];portConstraint=eastwest;fontFamily=Comic Sans MS;fontSize=22;strokeWidth=2;" vertex="1" parent="V7oSJsPAiHyumdqO1vG8-76">
          <mxGeometry width="35" height="30" as="geometry" />
        </mxCell>
        <mxCell id="V7oSJsPAiHyumdqO1vG8-78" value="23" style="shape=partialRectangle;html=1;whiteSpace=wrap;connectable=0;overflow=hidden;fillColor=none;top=0;left=0;bottom=0;right=0;pointerEvents=1;fontFamily=Comic Sans MS;fontSize=22;strokeWidth=2;" vertex="1" parent="V7oSJsPAiHyumdqO1vG8-77">
          <mxGeometry width="35" height="30" as="geometry">
            <mxRectangle width="35" height="30" as="alternateBounds" />
          </mxGeometry>
        </mxCell>
        <mxCell id="V7oSJsPAiHyumdqO1vG8-81" value="" style="shape=table;startSize=0;container=1;collapsible=0;childLayout=tableLayout;fontFamily=Comic Sans MS;fontSize=22;strokeWidth=2;" vertex="1" parent="1">
          <mxGeometry x="227.5" y="250" width="35" height="30" as="geometry" />
        </mxCell>
        <mxCell id="V7oSJsPAiHyumdqO1vG8-82" value="" style="shape=partialRectangle;collapsible=0;dropTarget=0;pointerEvents=0;fillColor=none;top=0;left=0;bottom=0;right=0;points=[[0,0.5],[1,0.5]];portConstraint=eastwest;fontFamily=Comic Sans MS;fontSize=22;strokeWidth=2;" vertex="1" parent="V7oSJsPAiHyumdqO1vG8-81">
          <mxGeometry width="35" height="30" as="geometry" />
        </mxCell>
        <mxCell id="V7oSJsPAiHyumdqO1vG8-83" value="4" style="shape=partialRectangle;html=1;whiteSpace=wrap;connectable=0;overflow=hidden;fillColor=none;top=0;left=0;bottom=0;right=0;pointerEvents=1;fontFamily=Comic Sans MS;fontSize=22;strokeWidth=2;" vertex="1" parent="V7oSJsPAiHyumdqO1vG8-82">
          <mxGeometry width="35" height="30" as="geometry">
            <mxRectangle width="35" height="30" as="alternateBounds" />
          </mxGeometry>
        </mxCell>
        <mxCell id="V7oSJsPAiHyumdqO1vG8-84" value="" style="shape=table;startSize=0;container=1;collapsible=0;childLayout=tableLayout;fontFamily=Comic Sans MS;fontSize=22;strokeWidth=2;" vertex="1" parent="1">
          <mxGeometry x="170" y="250" width="35" height="30" as="geometry" />
        </mxCell>
        <mxCell id="V7oSJsPAiHyumdqO1vG8-85" value="" style="shape=partialRectangle;collapsible=0;dropTarget=0;pointerEvents=0;fillColor=none;top=0;left=0;bottom=0;right=0;points=[[0,0.5],[1,0.5]];portConstraint=eastwest;fontFamily=Comic Sans MS;fontSize=22;strokeWidth=2;" vertex="1" parent="V7oSJsPAiHyumdqO1vG8-84">
          <mxGeometry width="35" height="30" as="geometry" />
        </mxCell>
        <mxCell id="V7oSJsPAiHyumdqO1vG8-86" value="8" style="shape=partialRectangle;html=1;whiteSpace=wrap;connectable=0;overflow=hidden;fillColor=none;top=0;left=0;bottom=0;right=0;pointerEvents=1;fontFamily=Comic Sans MS;fontSize=22;strokeWidth=2;" vertex="1" parent="V7oSJsPAiHyumdqO1vG8-85">
          <mxGeometry width="35" height="30" as="geometry">
            <mxRectangle width="35" height="30" as="alternateBounds" />
          </mxGeometry>
        </mxCell>
        <mxCell id="V7oSJsPAiHyumdqO1vG8-89" value="" style="endArrow=classic;html=1;rounded=0;fontFamily=Comic Sans MS;fontSize=22;entryX=0.714;entryY=-0.167;entryDx=0;entryDy=0;entryPerimeter=0;" edge="1" parent="1" target="V7oSJsPAiHyumdqO1vG8-85">
          <mxGeometry width="50" height="50" relative="1" as="geometry">
            <mxPoint x="213.95000000000005" y="220" as="sourcePoint" />
            <mxPoint x="190" y="256.01" as="targetPoint" />
            <Array as="points">
              <mxPoint x="223.95" y="220" />
            </Array>
          </mxGeometry>
        </mxCell>
        <mxCell id="V7oSJsPAiHyumdqO1vG8-90" value="" style="endArrow=classic;html=1;rounded=0;fontFamily=Comic Sans MS;fontSize=22;entryX=0.643;entryY=0;entryDx=0;entryDy=0;entryPerimeter=0;" edge="1" parent="1" target="V7oSJsPAiHyumdqO1vG8-82">
          <mxGeometry width="50" height="50" relative="1" as="geometry">
            <mxPoint x="230" y="220" as="sourcePoint" />
            <mxPoint x="250" y="240" as="targetPoint" />
            <Array as="points" />
          </mxGeometry>
        </mxCell>
        <mxCell id="V7oSJsPAiHyumdqO1vG8-91" value="" style="endArrow=classic;html=1;rounded=0;fontFamily=Comic Sans MS;fontSize=22;entryX=0.629;entryY=-0.1;entryDx=0;entryDy=0;entryPerimeter=0;exitX=0.367;exitY=1.1;exitDx=0;exitDy=0;exitPerimeter=0;" edge="1" parent="1" source="V7oSJsPAiHyumdqO1vG8-30" target="V7oSJsPAiHyumdqO1vG8-77">
          <mxGeometry width="50" height="50" relative="1" as="geometry">
            <mxPoint x="240" y="230" as="sourcePoint" />
            <mxPoint x="260.005" y="260" as="targetPoint" />
            <Array as="points" />
          </mxGeometry>
        </mxCell>
        <mxCell id="V7oSJsPAiHyumdqO1vG8-92" value="" style="endArrow=classic;html=1;rounded=0;fontFamily=Comic Sans MS;fontSize=22;entryX=0.4;entryY=-0.033;entryDx=0;entryDy=0;entryPerimeter=0;exitX=0.538;exitY=1.033;exitDx=0;exitDy=0;exitPerimeter=0;" edge="1" parent="1" source="V7oSJsPAiHyumdqO1vG8-33" target="V7oSJsPAiHyumdqO1vG8-74">
          <mxGeometry width="50" height="50" relative="1" as="geometry">
            <mxPoint x="311.01" y="233" as="sourcePoint" />
            <mxPoint x="317.015" y="257" as="targetPoint" />
            <Array as="points" />
          </mxGeometry>
        </mxCell>
        <mxCell id="V7oSJsPAiHyumdqO1vG8-93" value="" style="endArrow=classic;html=1;rounded=0;fontFamily=Comic Sans MS;fontSize=22;entryX=0.486;entryY=-0.1;entryDx=0;entryDy=0;entryPerimeter=0;exitX=0.588;exitY=1;exitDx=0;exitDy=0;exitPerimeter=0;" edge="1" parent="1" source="V7oSJsPAiHyumdqO1vG8-33" target="V7oSJsPAiHyumdqO1vG8-67">
          <mxGeometry width="50" height="50" relative="1" as="geometry">
            <mxPoint x="321.01" y="243" as="sourcePoint" />
            <mxPoint x="327.015" y="267" as="targetPoint" />
            <Array as="points" />
          </mxGeometry>
        </mxCell>
        <mxCell id="V7oSJsPAiHyumdqO1vG8-94" value="" style="endArrow=classic;html=1;rounded=0;fontFamily=Comic Sans MS;fontSize=22;entryX=0.4;entryY=0;entryDx=0;entryDy=0;entryPerimeter=0;exitX=0.467;exitY=1.067;exitDx=0;exitDy=0;exitPerimeter=0;" edge="1" parent="1" source="V7oSJsPAiHyumdqO1vG8-37" target="V7oSJsPAiHyumdqO1vG8-58">
          <mxGeometry width="50" height="50" relative="1" as="geometry">
            <mxPoint x="397.03999999999996" y="230" as="sourcePoint" />
            <mxPoint x="417.01" y="257" as="targetPoint" />
            <Array as="points" />
          </mxGeometry>
        </mxCell>
        <mxCell id="V7oSJsPAiHyumdqO1vG8-95" value="" style="shape=table;startSize=0;container=1;collapsible=0;childLayout=tableLayout;fontFamily=Comic Sans MS;fontSize=22;strokeWidth=2;" vertex="1" parent="1">
          <mxGeometry x="182.5" y="320" width="80" height="30" as="geometry" />
        </mxCell>
        <mxCell id="V7oSJsPAiHyumdqO1vG8-96" value="" style="shape=partialRectangle;collapsible=0;dropTarget=0;pointerEvents=0;fillColor=none;top=0;left=0;bottom=0;right=0;points=[[0,0.5],[1,0.5]];portConstraint=eastwest;fontFamily=Comic Sans MS;fontSize=22;strokeWidth=2;" vertex="1" parent="V7oSJsPAiHyumdqO1vG8-95">
          <mxGeometry width="80" height="30" as="geometry" />
        </mxCell>
        <mxCell id="V7oSJsPAiHyumdqO1vG8-97" value="4" style="shape=partialRectangle;html=1;whiteSpace=wrap;connectable=0;overflow=hidden;fillColor=none;top=0;left=0;bottom=0;right=0;pointerEvents=1;fontFamily=Comic Sans MS;fontSize=22;strokeWidth=2;" vertex="1" parent="V7oSJsPAiHyumdqO1vG8-96">
          <mxGeometry width="40" height="30" as="geometry">
            <mxRectangle width="40" height="30" as="alternateBounds" />
          </mxGeometry>
        </mxCell>
        <mxCell id="V7oSJsPAiHyumdqO1vG8-98" value="8" style="shape=partialRectangle;html=1;whiteSpace=wrap;connectable=0;overflow=hidden;fillColor=none;top=0;left=0;bottom=0;right=0;pointerEvents=1;fontFamily=Comic Sans MS;fontSize=22;strokeWidth=2;" vertex="1" parent="V7oSJsPAiHyumdqO1vG8-96">
          <mxGeometry x="40" width="40" height="30" as="geometry">
            <mxRectangle width="40" height="30" as="alternateBounds" />
          </mxGeometry>
        </mxCell>
        <mxCell id="V7oSJsPAiHyumdqO1vG8-100" value="" style="endArrow=classic;html=1;rounded=0;fontFamily=Comic Sans MS;fontSize=22;entryX=0.486;entryY=1.033;entryDx=0;entryDy=0;entryPerimeter=0;" edge="1" parent="1" target="V7oSJsPAiHyumdqO1vG8-85">
          <mxGeometry width="50" height="50" relative="1" as="geometry">
            <mxPoint x="200" y="320" as="sourcePoint" />
            <mxPoint x="220" y="290" as="targetPoint" />
            <Array as="points">
              <mxPoint x="220" y="320" />
              <mxPoint x="210" y="320" />
            </Array>
          </mxGeometry>
        </mxCell>
        <mxCell id="V7oSJsPAiHyumdqO1vG8-101" value="" style="shape=table;startSize=0;container=1;collapsible=0;childLayout=tableLayout;fontFamily=Comic Sans MS;fontSize=22;strokeWidth=2;" vertex="1" parent="1">
          <mxGeometry x="285" y="320" width="35" height="30" as="geometry" />
        </mxCell>
        <mxCell id="V7oSJsPAiHyumdqO1vG8-102" value="" style="shape=partialRectangle;collapsible=0;dropTarget=0;pointerEvents=0;fillColor=none;top=0;left=0;bottom=0;right=0;points=[[0,0.5],[1,0.5]];portConstraint=eastwest;fontFamily=Comic Sans MS;fontSize=22;strokeWidth=2;" vertex="1" parent="V7oSJsPAiHyumdqO1vG8-101">
          <mxGeometry width="35" height="30" as="geometry" />
        </mxCell>
        <mxCell id="V7oSJsPAiHyumdqO1vG8-103" value="23" style="shape=partialRectangle;html=1;whiteSpace=wrap;connectable=0;overflow=hidden;fillColor=none;top=0;left=0;bottom=0;right=0;pointerEvents=1;fontFamily=Comic Sans MS;fontSize=22;strokeWidth=2;" vertex="1" parent="V7oSJsPAiHyumdqO1vG8-102">
          <mxGeometry width="35" height="30" as="geometry">
            <mxRectangle width="35" height="30" as="alternateBounds" />
          </mxGeometry>
        </mxCell>
        <mxCell id="V7oSJsPAiHyumdqO1vG8-104" value="" style="endArrow=classic;html=1;rounded=0;fontFamily=Comic Sans MS;fontSize=22;exitX=0.543;exitY=-0.133;exitDx=0;exitDy=0;exitPerimeter=0;entryX=0.6;entryY=1.067;entryDx=0;entryDy=0;entryPerimeter=0;" edge="1" parent="1" source="V7oSJsPAiHyumdqO1vG8-102" target="V7oSJsPAiHyumdqO1vG8-77">
          <mxGeometry width="50" height="50" relative="1" as="geometry">
            <mxPoint x="306" y="280" as="sourcePoint" />
            <mxPoint x="304" y="290" as="targetPoint" />
            <Array as="points" />
          </mxGeometry>
        </mxCell>
        <mxCell id="V7oSJsPAiHyumdqO1vG8-105" value="" style="shape=table;startSize=0;container=1;collapsible=0;childLayout=tableLayout;fontFamily=Comic Sans MS;fontSize=22;strokeWidth=2;" vertex="1" parent="1">
          <mxGeometry x="340" y="320" width="80" height="30" as="geometry" />
        </mxCell>
        <mxCell id="V7oSJsPAiHyumdqO1vG8-106" value="" style="shape=partialRectangle;collapsible=0;dropTarget=0;pointerEvents=0;fillColor=none;top=0;left=0;bottom=0;right=0;points=[[0,0.5],[1,0.5]];portConstraint=eastwest;fontFamily=Comic Sans MS;fontSize=22;strokeWidth=2;" vertex="1" parent="V7oSJsPAiHyumdqO1vG8-105">
          <mxGeometry width="80" height="30" as="geometry" />
        </mxCell>
        <mxCell id="V7oSJsPAiHyumdqO1vG8-107" value="16" style="shape=partialRectangle;html=1;whiteSpace=wrap;connectable=0;overflow=hidden;fillColor=none;top=0;left=0;bottom=0;right=0;pointerEvents=1;fontFamily=Comic Sans MS;fontSize=22;strokeWidth=2;" vertex="1" parent="V7oSJsPAiHyumdqO1vG8-106">
          <mxGeometry width="40" height="30" as="geometry">
            <mxRectangle width="40" height="30" as="alternateBounds" />
          </mxGeometry>
        </mxCell>
        <mxCell id="V7oSJsPAiHyumdqO1vG8-108" value="42" style="shape=partialRectangle;html=1;whiteSpace=wrap;connectable=0;overflow=hidden;fillColor=none;top=0;left=0;bottom=0;right=0;pointerEvents=1;fontFamily=Comic Sans MS;fontSize=22;strokeWidth=2;" vertex="1" parent="V7oSJsPAiHyumdqO1vG8-106">
          <mxGeometry x="40" width="40" height="30" as="geometry">
            <mxRectangle width="40" height="30" as="alternateBounds" />
          </mxGeometry>
        </mxCell>
        <mxCell id="V7oSJsPAiHyumdqO1vG8-109" value="" style="endArrow=classic;html=1;rounded=0;fontFamily=Comic Sans MS;fontSize=22;entryX=0.314;entryY=1.067;entryDx=0;entryDy=0;entryPerimeter=0;exitX=0.575;exitY=-0.1;exitDx=0;exitDy=0;exitPerimeter=0;" edge="1" parent="1" source="V7oSJsPAiHyumdqO1vG8-106" target="V7oSJsPAiHyumdqO1vG8-67">
          <mxGeometry width="50" height="50" relative="1" as="geometry">
            <mxPoint x="393.03999999999996" y="230.99" as="sourcePoint" />
            <mxPoint x="364" y="259.01" as="targetPoint" />
            <Array as="points" />
          </mxGeometry>
        </mxCell>
        <mxCell id="V7oSJsPAiHyumdqO1vG8-110" value="" style="endArrow=classic;html=1;rounded=0;fontFamily=Comic Sans MS;fontSize=22;entryX=0.629;entryY=1.133;entryDx=0;entryDy=0;entryPerimeter=0;exitX=0.488;exitY=-0.1;exitDx=0;exitDy=0;exitPerimeter=0;" edge="1" parent="1" source="V7oSJsPAiHyumdqO1vG8-106" target="V7oSJsPAiHyumdqO1vG8-74">
          <mxGeometry width="50" height="50" relative="1" as="geometry">
            <mxPoint x="396" y="327" as="sourcePoint" />
            <mxPoint x="410.99" y="292.01" as="targetPoint" />
            <Array as="points" />
          </mxGeometry>
        </mxCell>
        <mxCell id="V7oSJsPAiHyumdqO1vG8-111" value="" style="endArrow=classic;html=1;rounded=0;fontFamily=Comic Sans MS;fontSize=22;exitX=0.594;exitY=0.033;exitDx=0;exitDy=0;exitPerimeter=0;entryX=0.7;entryY=1.1;entryDx=0;entryDy=0;entryPerimeter=0;" edge="1" parent="1" source="V7oSJsPAiHyumdqO1vG8-96" target="V7oSJsPAiHyumdqO1vG8-82">
          <mxGeometry width="50" height="50" relative="1" as="geometry">
            <mxPoint x="314.005" y="326.01" as="sourcePoint" />
            <mxPoint x="316" y="292.01" as="targetPoint" />
            <Array as="points" />
          </mxGeometry>
        </mxCell>
        <mxCell id="V7oSJsPAiHyumdqO1vG8-116" value="" style="shape=table;startSize=0;container=1;collapsible=0;childLayout=tableLayout;fontFamily=Comic Sans MS;fontSize=22;strokeWidth=2;" vertex="1" parent="1">
          <mxGeometry x="440" y="320" width="35" height="30" as="geometry" />
        </mxCell>
        <mxCell id="V7oSJsPAiHyumdqO1vG8-117" value="" style="shape=partialRectangle;collapsible=0;dropTarget=0;pointerEvents=0;fillColor=none;top=0;left=0;bottom=0;right=0;points=[[0,0.5],[1,0.5]];portConstraint=eastwest;fontFamily=Comic Sans MS;fontSize=22;strokeWidth=2;" vertex="1" parent="V7oSJsPAiHyumdqO1vG8-116">
          <mxGeometry width="35" height="30" as="geometry" />
        </mxCell>
        <mxCell id="V7oSJsPAiHyumdqO1vG8-118" value="15" style="shape=partialRectangle;html=1;whiteSpace=wrap;connectable=0;overflow=hidden;fillColor=none;top=0;left=0;bottom=0;right=0;pointerEvents=1;fontFamily=Comic Sans MS;fontSize=22;strokeWidth=2;" vertex="1" parent="V7oSJsPAiHyumdqO1vG8-117">
          <mxGeometry width="35" height="30" as="geometry">
            <mxRectangle width="35" height="30" as="alternateBounds" />
          </mxGeometry>
        </mxCell>
        <mxCell id="V7oSJsPAiHyumdqO1vG8-119" value="" style="endArrow=classic;html=1;rounded=0;fontFamily=Comic Sans MS;fontSize=22;exitX=0.571;exitY=0;exitDx=0;exitDy=0;exitPerimeter=0;" edge="1" parent="1" source="V7oSJsPAiHyumdqO1vG8-117">
          <mxGeometry width="50" height="50" relative="1" as="geometry">
            <mxPoint x="314.005" y="326.01" as="sourcePoint" />
            <mxPoint x="460" y="280" as="targetPoint" />
            <Array as="points" />
          </mxGeometry>
        </mxCell>
        <mxCell id="V7oSJsPAiHyumdqO1vG8-120" value="" style="shape=table;startSize=0;container=1;collapsible=0;childLayout=tableLayout;fontFamily=Comic Sans MS;fontSize=22;strokeWidth=2;" vertex="1" parent="1">
          <mxGeometry x="205" y="380" width="110" height="30" as="geometry" />
        </mxCell>
        <mxCell id="V7oSJsPAiHyumdqO1vG8-121" value="" style="shape=partialRectangle;collapsible=0;dropTarget=0;pointerEvents=0;fillColor=none;top=0;left=0;bottom=0;right=0;points=[[0,0.5],[1,0.5]];portConstraint=eastwest;fontFamily=Comic Sans MS;fontSize=22;strokeWidth=2;" vertex="1" parent="V7oSJsPAiHyumdqO1vG8-120">
          <mxGeometry width="110" height="30" as="geometry" />
        </mxCell>
        <mxCell id="V7oSJsPAiHyumdqO1vG8-122" value="4" style="shape=partialRectangle;html=1;whiteSpace=wrap;connectable=0;overflow=hidden;fillColor=none;top=0;left=0;bottom=0;right=0;pointerEvents=1;fontFamily=Comic Sans MS;fontSize=22;strokeWidth=2;" vertex="1" parent="V7oSJsPAiHyumdqO1vG8-121">
          <mxGeometry width="40" height="30" as="geometry">
            <mxRectangle width="40" height="30" as="alternateBounds" />
          </mxGeometry>
        </mxCell>
        <mxCell id="V7oSJsPAiHyumdqO1vG8-123" value="8" style="shape=partialRectangle;html=1;whiteSpace=wrap;connectable=0;overflow=hidden;fillColor=none;top=0;left=0;bottom=0;right=0;pointerEvents=1;fontFamily=Comic Sans MS;fontSize=22;strokeWidth=2;" vertex="1" parent="V7oSJsPAiHyumdqO1vG8-121">
          <mxGeometry x="40" width="30" height="30" as="geometry">
            <mxRectangle width="30" height="30" as="alternateBounds" />
          </mxGeometry>
        </mxCell>
        <mxCell id="V7oSJsPAiHyumdqO1vG8-124" value="23" style="shape=partialRectangle;html=1;whiteSpace=wrap;connectable=0;overflow=hidden;fillColor=none;top=0;left=0;bottom=0;right=0;pointerEvents=1;fontFamily=Comic Sans MS;fontSize=22;strokeWidth=2;" vertex="1" parent="V7oSJsPAiHyumdqO1vG8-121">
          <mxGeometry x="70" width="40" height="30" as="geometry">
            <mxRectangle width="40" height="30" as="alternateBounds" />
          </mxGeometry>
        </mxCell>
        <mxCell id="V7oSJsPAiHyumdqO1vG8-126" value="" style="endArrow=classic;html=1;rounded=0;fontFamily=Comic Sans MS;fontSize=22;exitX=0.382;exitY=-0.133;exitDx=0;exitDy=0;exitPerimeter=0;" edge="1" parent="1" source="V7oSJsPAiHyumdqO1vG8-121">
          <mxGeometry width="50" height="50" relative="1" as="geometry">
            <mxPoint x="240.01999999999998" y="330.99" as="sourcePoint" />
            <mxPoint x="223" y="350" as="targetPoint" />
            <Array as="points" />
          </mxGeometry>
        </mxCell>
        <mxCell id="V7oSJsPAiHyumdqO1vG8-127" value="" style="endArrow=classic;html=1;rounded=0;fontFamily=Comic Sans MS;fontSize=22;exitX=0.536;exitY=-0.033;exitDx=0;exitDy=0;exitPerimeter=0;entryX=0.343;entryY=0.967;entryDx=0;entryDy=0;entryPerimeter=0;" edge="1" parent="1" source="V7oSJsPAiHyumdqO1vG8-121" target="V7oSJsPAiHyumdqO1vG8-102">
          <mxGeometry width="50" height="50" relative="1" as="geometry">
            <mxPoint x="257.02" y="386.01" as="sourcePoint" />
            <mxPoint x="233" y="360" as="targetPoint" />
            <Array as="points" />
          </mxGeometry>
        </mxCell>
        <mxCell id="V7oSJsPAiHyumdqO1vG8-128" value="" style="shape=table;startSize=0;container=1;collapsible=0;childLayout=tableLayout;fontFamily=Comic Sans MS;fontSize=22;strokeWidth=2;" vertex="1" parent="1">
          <mxGeometry x="360" y="380" width="110" height="30" as="geometry" />
        </mxCell>
        <mxCell id="V7oSJsPAiHyumdqO1vG8-129" value="" style="shape=partialRectangle;collapsible=0;dropTarget=0;pointerEvents=0;fillColor=none;top=0;left=0;bottom=0;right=0;points=[[0,0.5],[1,0.5]];portConstraint=eastwest;fontFamily=Comic Sans MS;fontSize=22;strokeWidth=2;" vertex="1" parent="V7oSJsPAiHyumdqO1vG8-128">
          <mxGeometry width="110" height="30" as="geometry" />
        </mxCell>
        <mxCell id="V7oSJsPAiHyumdqO1vG8-130" value="15" style="shape=partialRectangle;html=1;whiteSpace=wrap;connectable=0;overflow=hidden;fillColor=none;top=0;left=0;bottom=0;right=0;pointerEvents=1;fontFamily=Comic Sans MS;fontSize=22;strokeWidth=2;" vertex="1" parent="V7oSJsPAiHyumdqO1vG8-129">
          <mxGeometry width="40" height="30" as="geometry">
            <mxRectangle width="40" height="30" as="alternateBounds" />
          </mxGeometry>
        </mxCell>
        <mxCell id="V7oSJsPAiHyumdqO1vG8-131" value="16" style="shape=partialRectangle;html=1;whiteSpace=wrap;connectable=0;overflow=hidden;fillColor=none;top=0;left=0;bottom=0;right=0;pointerEvents=1;fontFamily=Comic Sans MS;fontSize=22;strokeWidth=2;" vertex="1" parent="V7oSJsPAiHyumdqO1vG8-129">
          <mxGeometry x="40" width="30" height="30" as="geometry">
            <mxRectangle width="30" height="30" as="alternateBounds" />
          </mxGeometry>
        </mxCell>
        <mxCell id="V7oSJsPAiHyumdqO1vG8-132" value="42" style="shape=partialRectangle;html=1;whiteSpace=wrap;connectable=0;overflow=hidden;fillColor=none;top=0;left=0;bottom=0;right=0;pointerEvents=1;fontFamily=Comic Sans MS;fontSize=22;strokeWidth=2;" vertex="1" parent="V7oSJsPAiHyumdqO1vG8-129">
          <mxGeometry x="70" width="40" height="30" as="geometry">
            <mxRectangle width="40" height="30" as="alternateBounds" />
          </mxGeometry>
        </mxCell>
        <mxCell id="V7oSJsPAiHyumdqO1vG8-133" value="" style="endArrow=classic;html=1;rounded=0;fontFamily=Comic Sans MS;fontSize=22;exitX=0.527;exitY=-0.133;exitDx=0;exitDy=0;exitPerimeter=0;" edge="1" parent="1" source="V7oSJsPAiHyumdqO1vG8-129" target="V7oSJsPAiHyumdqO1vG8-106">
          <mxGeometry width="50" height="50" relative="1" as="geometry">
            <mxPoint x="410" y="370" as="sourcePoint" />
            <mxPoint x="372.015" y="293.99" as="targetPoint" />
            <Array as="points" />
          </mxGeometry>
        </mxCell>
        <mxCell id="V7oSJsPAiHyumdqO1vG8-134" value="" style="endArrow=classic;html=1;rounded=0;fontFamily=Comic Sans MS;fontSize=22;exitX=0.564;exitY=-0.067;exitDx=0;exitDy=0;exitPerimeter=0;entryX=0.457;entryY=0.967;entryDx=0;entryDy=0;entryPerimeter=0;" edge="1" parent="1" source="V7oSJsPAiHyumdqO1vG8-129" target="V7oSJsPAiHyumdqO1vG8-117">
          <mxGeometry width="50" height="50" relative="1" as="geometry">
            <mxPoint x="469.9849999999999" y="330" as="sourcePoint" />
            <mxPoint x="470" y="290" as="targetPoint" />
            <Array as="points" />
          </mxGeometry>
        </mxCell>
        <mxCell id="V7oSJsPAiHyumdqO1vG8-135" value="" style="shape=table;startSize=0;container=1;collapsible=0;childLayout=tableLayout;strokeWidth=2;fontFamily=Comic Sans MS;fontSize=25;fontStyle=0" vertex="1" parent="1">
          <mxGeometry x="200" y="440" width="270" height="30" as="geometry" />
        </mxCell>
        <mxCell id="V7oSJsPAiHyumdqO1vG8-136" value="" style="shape=partialRectangle;collapsible=0;dropTarget=0;pointerEvents=0;fillColor=none;top=0;left=0;bottom=0;right=0;points=[[0,0.5],[1,0.5]];portConstraint=eastwest;fontSize=24;fontFamily=Comic Sans MS;fontStyle=1" vertex="1" parent="V7oSJsPAiHyumdqO1vG8-135">
          <mxGeometry width="270" height="30" as="geometry" />
        </mxCell>
        <mxCell id="V7oSJsPAiHyumdqO1vG8-137" value="&lt;font style=&quot;font-size: 22px&quot;&gt;4&lt;/font&gt;" style="shape=partialRectangle;html=1;whiteSpace=wrap;connectable=0;overflow=hidden;fillColor=none;top=0;left=0;bottom=0;right=0;pointerEvents=1;fontSize=22;fontFamily=Comic Sans MS;" vertex="1" parent="V7oSJsPAiHyumdqO1vG8-136">
          <mxGeometry width="45" height="30" as="geometry">
            <mxRectangle width="45" height="30" as="alternateBounds" />
          </mxGeometry>
        </mxCell>
        <mxCell id="V7oSJsPAiHyumdqO1vG8-138" value="&lt;font style=&quot;font-size: 22px&quot;&gt;8&lt;/font&gt;" style="shape=partialRectangle;html=1;whiteSpace=wrap;connectable=0;overflow=hidden;fillColor=none;top=0;left=0;bottom=0;right=0;pointerEvents=1;fontFamily=Comic Sans MS;fontSize=22;" vertex="1" parent="V7oSJsPAiHyumdqO1vG8-136">
          <mxGeometry x="45" width="45" height="30" as="geometry">
            <mxRectangle width="45" height="30" as="alternateBounds" />
          </mxGeometry>
        </mxCell>
        <mxCell id="V7oSJsPAiHyumdqO1vG8-139" value="&lt;font style=&quot;font-size: 22px&quot;&gt;15&lt;/font&gt;" style="shape=partialRectangle;html=1;whiteSpace=wrap;connectable=0;overflow=hidden;fillColor=none;top=0;left=0;bottom=0;right=0;pointerEvents=1;fontFamily=Comic Sans MS;fontSize=22;" vertex="1" parent="V7oSJsPAiHyumdqO1vG8-136">
          <mxGeometry x="90" width="45" height="30" as="geometry">
            <mxRectangle width="45" height="30" as="alternateBounds" />
          </mxGeometry>
        </mxCell>
        <mxCell id="V7oSJsPAiHyumdqO1vG8-140" value="&lt;font style=&quot;font-size: 23px&quot;&gt;16&lt;/font&gt;" style="shape=partialRectangle;html=1;whiteSpace=wrap;connectable=0;overflow=hidden;fillColor=none;top=0;left=0;bottom=0;right=0;pointerEvents=1;fontFamily=Comic Sans MS;fontSize=23;" vertex="1" parent="V7oSJsPAiHyumdqO1vG8-136">
          <mxGeometry x="135" width="45" height="30" as="geometry">
            <mxRectangle width="45" height="30" as="alternateBounds" />
          </mxGeometry>
        </mxCell>
        <mxCell id="V7oSJsPAiHyumdqO1vG8-141" value="&lt;font style=&quot;font-size: 23px&quot; face=&quot;Comic Sans MS&quot;&gt;23&lt;/font&gt;" style="shape=partialRectangle;html=1;whiteSpace=wrap;connectable=0;overflow=hidden;fillColor=none;top=0;left=0;bottom=0;right=0;pointerEvents=1;" vertex="1" parent="V7oSJsPAiHyumdqO1vG8-136">
          <mxGeometry x="180" width="45" height="30" as="geometry">
            <mxRectangle width="45" height="30" as="alternateBounds" />
          </mxGeometry>
        </mxCell>
        <mxCell id="V7oSJsPAiHyumdqO1vG8-142" value="&lt;font style=&quot;font-size: 23px&quot; face=&quot;Comic Sans MS&quot;&gt;42&lt;/font&gt;" style="shape=partialRectangle;html=1;whiteSpace=wrap;connectable=0;overflow=hidden;fillColor=none;top=0;left=0;bottom=0;right=0;pointerEvents=1;" vertex="1" parent="V7oSJsPAiHyumdqO1vG8-136">
          <mxGeometry x="225" width="45" height="30" as="geometry">
            <mxRectangle width="45" height="30" as="alternateBounds" />
          </mxGeometry>
        </mxCell>
        <mxCell id="V7oSJsPAiHyumdqO1vG8-143" value="" style="endArrow=classic;html=1;rounded=0;fontFamily=Comic Sans MS;fontSize=22;exitX=0.404;exitY=-0.133;exitDx=0;exitDy=0;exitPerimeter=0;entryX=0.627;entryY=1.067;entryDx=0;entryDy=0;entryPerimeter=0;" edge="1" parent="1" source="V7oSJsPAiHyumdqO1vG8-136" target="V7oSJsPAiHyumdqO1vG8-121">
          <mxGeometry width="50" height="50" relative="1" as="geometry">
            <mxPoint x="257.02" y="386.01" as="sourcePoint" />
            <mxPoint x="233" y="360" as="targetPoint" />
            <Array as="points" />
          </mxGeometry>
        </mxCell>
        <mxCell id="V7oSJsPAiHyumdqO1vG8-144" value="" style="endArrow=classic;html=1;rounded=0;fontFamily=Comic Sans MS;fontSize=22;exitX=0.622;exitY=-0.1;exitDx=0;exitDy=0;exitPerimeter=0;entryX=0.509;entryY=0.967;entryDx=0;entryDy=0;entryPerimeter=0;" edge="1" parent="1" source="V7oSJsPAiHyumdqO1vG8-136" target="V7oSJsPAiHyumdqO1vG8-129">
          <mxGeometry width="50" height="50" relative="1" as="geometry">
            <mxPoint x="432.03999999999996" y="387.99" as="sourcePoint" />
            <mxPoint x="420" y="420" as="targetPoint" />
            <Array as="points" />
          </mxGeometry>
        </mxCell>
        <mxCell id="V7oSJsPAiHyumdqO1vG8-145" value="&lt;font color=&quot;#ff0080&quot;&gt;1&lt;/font&gt;" style="text;html=1;align=center;verticalAlign=middle;resizable=0;points=[];autosize=1;strokeColor=none;fillColor=none;fontSize=22;fontFamily=Comic Sans MS;" vertex="1" parent="1">
          <mxGeometry x="310" y="70" width="30" height="30" as="geometry" />
        </mxCell>
        <mxCell id="V7oSJsPAiHyumdqO1vG8-146" value="&lt;font color=&quot;#ff0080&quot;&gt;2&lt;/font&gt;" style="text;html=1;align=center;verticalAlign=middle;resizable=0;points=[];autosize=1;strokeColor=none;fillColor=none;fontSize=22;fontFamily=Comic Sans MS;" vertex="1" parent="1">
          <mxGeometry x="240" y="150" width="30" height="30" as="geometry" />
        </mxCell>
        <mxCell id="V7oSJsPAiHyumdqO1vG8-147" value="&lt;span style=&quot;color: rgba(0 , 0 , 0 , 0) ; font-family: monospace ; font-size: 0px&quot;&gt;%3CmxGraphModel%3E%3Croot%3E%3CmxCell%20id%3D%220%22%2F%3E%3CmxCell%20id%3D%221%22%20parent%3D%220%22%2F%3E%3CmxCell%20id%3D%222%22%20value%3D%22%26lt%3Bfont%20color%3D%26quot%3B%23ff0080%26quot%3B%26gt%3B1%26lt%3B%2Ffont%26gt%3B%22%20style%3D%22text%3Bhtml%3D1%3Balign%3Dcenter%3BverticalAlign%3Dmiddle%3Bresizable%3D0%3Bpoints%3D%5B%5D%3Bautosize%3D1%3BstrokeColor%3Dnone%3BfillColor%3Dnone%3BfontSize%3D22%3BfontFamily%3DComic%20Sans%20MS%3B%22%20vertex%3D%221%22%20parent%3D%221%22%3E%3CmxGeometry%20x%3D%22310%22%20y%3D%2270%22%20width%3D%2230%22%20height%3D%2230%22%20as%3D%22geometry%22%2F%3E%3C%2FmxCell%3E%3C%2Froot%3E%3C%2FmxGraphModel%3E&lt;/span&gt;&lt;font color=&quot;#ff0080&quot;&gt;3&lt;/font&gt;" style="text;html=1;align=center;verticalAlign=middle;resizable=0;points=[];autosize=1;strokeColor=none;fillColor=none;fontSize=22;fontFamily=Comic Sans MS;" vertex="1" parent="1">
          <mxGeometry x="205" y="215" width="30" height="40" as="geometry" />
        </mxCell>
        <mxCell id="V7oSJsPAiHyumdqO1vG8-148" value="&lt;font color=&quot;#ff0080&quot;&gt;4&lt;/font&gt;" style="text;html=1;align=center;verticalAlign=middle;resizable=0;points=[];autosize=1;strokeColor=none;fillColor=none;fontSize=22;fontFamily=Comic Sans MS;" vertex="1" parent="1">
          <mxGeometry x="160" y="280" width="30" height="30" as="geometry" />
        </mxCell>
        <mxCell id="V7oSJsPAiHyumdqO1vG8-149" value="&lt;font color=&quot;#ff0080&quot;&gt;5&lt;/font&gt;" style="text;html=1;align=center;verticalAlign=middle;resizable=0;points=[];autosize=1;strokeColor=none;fillColor=none;fontSize=22;fontFamily=Comic Sans MS;" vertex="1" parent="1">
          <mxGeometry x="235" y="290" width="30" height="30" as="geometry" />
        </mxCell>
        <mxCell id="V7oSJsPAiHyumdqO1vG8-150" value="&lt;font color=&quot;#ff0080&quot;&gt;6&lt;/font&gt;" style="text;html=1;align=center;verticalAlign=middle;resizable=0;points=[];autosize=1;strokeColor=none;fillColor=none;fontSize=22;fontFamily=Comic Sans MS;" vertex="1" parent="1">
          <mxGeometry x="182.5" y="350" width="30" height="30" as="geometry" />
        </mxCell>
        <mxCell id="V7oSJsPAiHyumdqO1vG8-151" value="&lt;font color=&quot;#ff0080&quot;&gt;7&lt;/font&gt;" style="text;html=1;align=center;verticalAlign=middle;resizable=0;points=[];autosize=1;strokeColor=none;fillColor=none;fontSize=22;fontFamily=Comic Sans MS;" vertex="1" parent="1">
          <mxGeometry x="270" y="215" width="30" height="30" as="geometry" />
        </mxCell>
        <mxCell id="V7oSJsPAiHyumdqO1vG8-152" value="&lt;font color=&quot;#ff0080&quot;&gt;8&lt;/font&gt;" style="text;html=1;align=center;verticalAlign=middle;resizable=0;points=[];autosize=1;strokeColor=none;fillColor=none;fontSize=22;fontFamily=Comic Sans MS;" vertex="1" parent="1">
          <mxGeometry x="290" y="350" width="30" height="30" as="geometry" />
        </mxCell>
        <mxCell id="V7oSJsPAiHyumdqO1vG8-153" value="&lt;font color=&quot;#ff0080&quot;&gt;9&lt;/font&gt;" style="text;html=1;align=center;verticalAlign=middle;resizable=0;points=[];autosize=1;strokeColor=none;fillColor=none;fontSize=22;fontFamily=Comic Sans MS;" vertex="1" parent="1">
          <mxGeometry x="230" y="410" width="30" height="30" as="geometry" />
        </mxCell>
        <mxCell id="V7oSJsPAiHyumdqO1vG8-154" value="&lt;font color=&quot;#ff0080&quot;&gt;10&lt;/font&gt;" style="text;html=1;align=center;verticalAlign=middle;resizable=0;points=[];autosize=1;strokeColor=none;fillColor=none;fontSize=22;fontFamily=Comic Sans MS;" vertex="1" parent="1">
          <mxGeometry x="395" y="160" width="40" height="30" as="geometry" />
        </mxCell>
        <mxCell id="V7oSJsPAiHyumdqO1vG8-155" value="&lt;font color=&quot;#ff0080&quot;&gt;11&lt;/font&gt;" style="text;html=1;align=center;verticalAlign=middle;resizable=0;points=[];autosize=1;strokeColor=none;fillColor=none;fontSize=22;fontFamily=Comic Sans MS;" vertex="1" parent="1">
          <mxGeometry x="395" y="215" width="40" height="30" as="geometry" />
        </mxCell>
        <mxCell id="V7oSJsPAiHyumdqO1vG8-156" value="&lt;font color=&quot;#ff0080&quot;&gt;15&lt;/font&gt;" style="text;html=1;align=center;verticalAlign=middle;resizable=0;points=[];autosize=1;strokeColor=none;fillColor=none;fontSize=22;fontFamily=Comic Sans MS;" vertex="1" parent="1">
          <mxGeometry x="465" y="215" width="40" height="30" as="geometry" />
        </mxCell>
        <mxCell id="V7oSJsPAiHyumdqO1vG8-157" value="&lt;font color=&quot;#ff0080&quot;&gt;12&lt;/font&gt;" style="text;html=1;align=center;verticalAlign=middle;resizable=0;points=[];autosize=1;strokeColor=none;fillColor=none;fontSize=22;fontFamily=Comic Sans MS;" vertex="1" parent="1">
          <mxGeometry x="335" y="290" width="40" height="30" as="geometry" />
        </mxCell>
        <mxCell id="V7oSJsPAiHyumdqO1vG8-159" value="&lt;font color=&quot;#ff0080&quot;&gt;13&lt;/font&gt;" style="text;html=1;align=center;verticalAlign=middle;resizable=0;points=[];autosize=1;strokeColor=none;fillColor=none;fontSize=22;fontFamily=Comic Sans MS;" vertex="1" parent="1">
          <mxGeometry x="385" y="290" width="40" height="30" as="geometry" />
        </mxCell>
        <mxCell id="V7oSJsPAiHyumdqO1vG8-160" value="&lt;font color=&quot;#ff0080&quot;&gt;14&lt;/font&gt;" style="text;html=1;align=center;verticalAlign=middle;resizable=0;points=[];autosize=1;strokeColor=none;fillColor=none;fontSize=22;fontFamily=Comic Sans MS;" vertex="1" parent="1">
          <mxGeometry x="360" y="350" width="40" height="30" as="geometry" />
        </mxCell>
        <mxCell id="V7oSJsPAiHyumdqO1vG8-161" value="&lt;font color=&quot;#ff0080&quot;&gt;16&lt;/font&gt;" style="text;html=1;align=center;verticalAlign=middle;resizable=0;points=[];autosize=1;strokeColor=none;fillColor=none;fontSize=22;fontFamily=Comic Sans MS;" vertex="1" parent="1">
          <mxGeometry x="437.5" y="350" width="40" height="30" as="geometry" />
        </mxCell>
        <mxCell id="V7oSJsPAiHyumdqO1vG8-162" value="&lt;font color=&quot;#ff0080&quot;&gt;17&lt;/font&gt;" style="text;html=1;align=center;verticalAlign=middle;resizable=0;points=[];autosize=1;strokeColor=none;fillColor=none;fontSize=22;fontFamily=Comic Sans MS;" vertex="1" parent="1">
          <mxGeometry x="395" y="410" width="40" height="30" as="geometry" />
        </mxCell>
      </root>
    </mxGraphModel>
  </diagram>
</mxfile>
